<svg xmlns="http://www.w3.org/2000/svg" viewBox="0 0 490 490"><defs><style>.a{fill:#fff;}</style></defs><path d="M0,0V490H490V0ZM472.5,472.5H17.5V17.5h455Z"/><path d="M35,35V455H455V35ZM385,52.5h52.5V96.25H420V70H385ZM96.25,437.5H52.5V376.25H70V420H96.25Zm35,0h-17.5V420h17.5Zm-2.71-53.21,2.82-.83A26.88,26.88,0,0,1,128.54,384.29Z"/><path class="a" d="M123.44,318.64V171.36h57q24.83,0,36.87,10.52t12.05,29a33.45,33.45,0,0,1-16.55,29.49q8.26,3.42,14.93,12.32t6.65,22q0,19.25-12.41,31.56t-34.34,12.32Zm29.85-88.3H178.1q9.18,0,14.66-4.31t5.49-12.77q0-16.19-19.61-16.18H153.29Zm0,62.76h30a22.1,22.1,0,0,0,13.94-4.67q6-4.68,6-13.67A19,19,0,0,0,198,261q-5.31-5.47-15.38-5.48H153.29Z"/><path class="a" d="M255.61,318.64V171.36h57q24.83,0,36.87,10.52t12,29A33.45,33.45,0,0,1,345,240.41q8.28,3.42,14.93,12.32t6.65,22q0,19.25-12.41,31.56t-34.34,12.32Zm29.85-88.3h24.82q9.17,0,14.65-4.31t5.49-12.77q0-16.19-19.6-16.18H285.46Zm0,62.76h30a22.08,22.08,0,0,0,13.94-4.67q6-4.68,6-13.67a19,19,0,0,0-5.3-13.76q-5.31-5.47-15.38-5.48H285.46Z"/></svg>