<svg xmlns="http://www.w3.org/2000/svg" viewBox="0 0 490 490"><defs><style>.a{fill:#fff;}</style></defs><path d="M0,0V490H490V0ZM472.5,472.5H17.5V17.5h455Z"/><path d="M35,35V455H455V35ZM385,52.5h52.5V96.25H420V70H385ZM96.25,437.5H52.5V376.25H70V420H96.25Zm35,0h-17.5V420h17.5Zm-2.71-53.21,2.82-.83A26.88,26.88,0,0,1,128.54,384.29Z"/><path class="a" d="M274.36,133.11a56.69,56.69,0,0,1,37.83-16.62,45.21,45.21,0,0,1-1.2,12.43l-12.57-3.59L296,133.78l12.14,3.47h0a55.57,55.57,0,0,1-4.67,8.66l-7.85-6.54L290,146.13l8,6.68c-.63.69-1.2,1.41-1.87,2.07h0a59.7,59.7,0,0,1-6.41,5.47l-6.28-11-7.64,4.36,6.5,11.37h0a52.21,52.21,0,0,1-8.89,3.68l-2.76-9.64-8.46,2.42,2.64,9.15a43.57,43.57,0,0,1-7,.22,56.74,56.74,0,0,1,16.57-37.8ZM258,179.74c.5,0,1,.09,1.5.09a53,53,0,0,0,7.75-.64L271,192.35l8.46-2.42-3.61-12.66a61.74,61.74,0,0,0,10.82-4.53l6.74,11.8,7.64-4.36-6.9-12.12a67.66,67.66,0,0,0,8.25-7c.85-.86,1.59-1.76,2.4-2.64l11.62,9.68,5.64-6.76-11.82-9.83a63.07,63.07,0,0,0,6.42-11.88l10.15,2.9,2.41-8.45-9.74-2.79h0A54.13,54.13,0,0,0,321,116.71a57.08,57.08,0,0,1,50.63,50.63A54.13,54.13,0,0,0,357,168.89l-2.79-9.75-8.46,2.42,2.9,10.15a62.66,62.66,0,0,0-10.18,5.22l-6.82-10.23-7.32,4.89,7.09,10.63c-1.43,1.21-2.85,2.42-4.19,3.77h0a65.5,65.5,0,0,0-5.64,6.47l-13-9.32-5.11,7.16,13.27,9.48h0a63,63,0,0,0-4.89,10.42l-12.89-5.53-3.47,8.09,14.08,6a53.28,53.28,0,0,0-1,11.55A57.09,57.09,0,0,1,258,179.74ZM355.22,214a56.71,56.71,0,0,1-37.83,16.62,43.57,43.57,0,0,1,.44-8.23l8.43,3.61,3.46-8.08L320,213.71h0a52,52,0,0,1,4-8.77l10.34,7.38,5.11-7.16-10.6-7.57a57.27,57.27,0,0,1,4.71-5.37c.93-.93,1.92-1.76,2.89-2.61l5.58,8.36,7.32-4.88-5.89-8.84h0a54.54,54.54,0,0,1,7.72-4.05l3.47,12.14,8.47-2.42-3.6-12.58a45.28,45.28,0,0,1,12.44-1.19A56.76,56.76,0,0,1,355.22,214Z"/><path class="a" d="M118.13,364,254.5,227.62l6.22,6.22L124.36,370.2Z"/><path class="a" d="M153.33,298l92.37-92.37,6.22,6.22-92.37,92.37Z"/><path class="a" d="M162.12,350.78,276.49,236.41l6.22,6.22L168.34,357Z"/><path class="a" d="M135.73,315.6l8.8-8.8,6.22,6.22-8.8,8.8Z"/><path class="a" d="M146.22,367.29,155,358.5l6.22,6.22-8.79,8.79Z"/></svg>