<svg xmlns="http://www.w3.org/2000/svg" viewBox="0 0 490 490"><defs><style>.a{fill:none;stroke:#fff;stroke-miterlimit:10;stroke-width:6.47px;}.b{fill:#fff;}</style></defs><path d="M0,0V490H490V0ZM472.5,472.5H17.5V17.5h455Z"/><path d="M35,35V455H455V35ZM385,52.5h52.5V96.25H420V70H385ZM96.25,437.5H52.5V376.25H70V420H96.25Zm35,0h-17.5V420h17.5Zm-2.71-53.21,2.82-.83A26.88,26.88,0,0,1,128.54,384.29Z"/><rect class="a" x="141.38" y="123.52" width="207.24" height="242.97"/><path class="b" d="M325.19,265.07c.52.7,1.08,1.38,1.66,2,6.74-4.21,15.63-6.54,25.19-6.54s18.44,2.33,25.19,6.54c.58-.66,1.13-1.34,1.66-2-6.85-4.39-16.55-6.89-26.85-6.89s-20,2.5-26.85,6.89Z"/><path class="b" d="M378.39,234.22V228c-.41.23-.84.45-1.26.67L376,235.61l-2.37-.39.89-5.29c-.76.32-1.53.63-2.32.92l-1,6-2.37-.39.79-4.72c-.68.21-1.37.4-2.07.59l-1.15,5.76-2.35-.47.94-4.68c-.72.15-1.46.29-2.2.42l-1.18,5.93-2.35-.47,1-5.08c-.79.1-1.59.19-2.39.26l-1.06,5.29-2.35-.47.93-4.65c-.79,0-1.58.07-2.37.08l-1,5-2.34-.47.91-4.58c-.78,0-1.56,0-2.33-.09l-1,5.14-2.34-.47,1-4.85c-.78-.08-1.55-.17-2.32-.27l-1.11,4.45-2.32-.58,1-4.24c-.84-.14-1.67-.31-2.49-.49l-1,4.11-2.33-.58,1-4.09c-.9-.24-1.78-.5-2.64-.77l-.84,4.19-2.34-.47.9-4.52c-.81-.31-1.62-.63-2.4-1l-.95,4.77-2.35-.47,1.08-5.37c-1-.54-2-1.11-3-1.71h0a33.38,33.38,0,0,0,0,36.19c.94-.6,1.92-1.17,3-1.71L325.71,256l2.35-.47.95,4.77c.78-.35,1.58-.67,2.4-1l-.91-4.52,2.35-.47.84,4.19c.86-.27,1.74-.53,2.63-.77l-1-4.09,2.32-.58,1,4.11c.83-.18,1.66-.34,2.5-.49l-1.06-4.24,2.33-.58,1.11,4.44c.77-.1,1.54-.19,2.32-.27l-1-4.85,2.35-.47,1,5.14c.78,0,1.55-.07,2.33-.09l-.91-4.57,2.34-.47,1,5c.8,0,1.58,0,2.37.08l-.93-4.65,2.35-.47,1.05,5.29c.81.07,1.61.16,2.4.26l-1-5.08,2.35-.47,1.18,5.93c.74.13,1.47.27,2.2.42l-.94-4.68,2.35-.47,1.15,5.76c.7.18,1.39.37,2.07.58l-.79-4.72,2.37-.39,1,6c.79.29,1.56.6,2.32.92l-.89-5.3,2.37-.39,1.15,6.91c.42.22.85.44,1.26.67v-6.19h2.39v6.47a33.41,33.41,0,0,0,0-34.51v6.48Zm-52.7,12v-2.4h2.39v2.4Zm0,6h-2.4v-2.4h2.4ZM383.18,245a31.29,31.29,0,0,1-.9,7.47L380,251.9h0a29,29,0,0,0-.31-15l2.3-.67a31,31,0,0,1,1.24,8.72Z"/><path class="b" d="M366.67,270.6l3.48-4.34c-1-.39-2-.74-3-1.06l-3.35,4.47-1.92-1.43,2.8-3.73c-1.49-.37-3-.68-4.58-.91l-.88,4.4-2.35-.47.85-4.24c-1.38-.14-2.78-.23-4.19-.27l.9,4.5-2.35.48-1-5c-.78,0-1.55,0-2.33.08l.89,4.44-2.35.48-.94-4.7c-1.13.12-2.24.27-3.34.46l1.74,3.46-2.14,1.07-2-4.05q-1.59.36-3.12.81l2.39,3.19-1.91,1.43L335,265.83c-.87.31-1.74.64-2.57,1l3.67,3.66-1.71,1.7L330.17,268c-.57.3-1.1.62-1.64.94h0a33.46,33.46,0,0,0,47,0c-1-.6-2.05-1.16-3.12-1.66l-3.88,4.87Z"/><path class="b" d="M326.85,222.89c-.58.66-1.14,1.34-1.66,2,6.85,4.39,16.55,6.89,26.85,6.89s20-2.5,26.85-6.89c-.53-.7-1.08-1.38-1.66-2-6.75,4.21-15.63,6.54-25.19,6.54s-18.45-2.33-25.19-6.54Z"/><path class="b" d="M328.53,221.11c.54.32,1.08.64,1.64.94l4.25-4.25,1.7,1.7-3.67,3.66c.83.36,1.69.7,2.57,1l2.88-3.84,1.92,1.43L337.43,225c1,.3,2.06.57,3.12.81l2-4,2.14,1.07L343,226.24c1.1.19,2.21.35,3.33.47l.94-4.7,2.36.47-.89,4.45c.77,0,1.56.06,2.33.08l1-5,2.35.47-.9,4.51c1.41,0,2.81-.13,4.19-.28l-.85-4.23,2.35-.47.88,4.4c1.56-.24,3.09-.54,4.58-.91l-2.8-3.74,1.92-1.43,3.35,4.47c1-.32,2-.67,3-1.06l-3.47-4.34,1.87-1.5,3.89,4.87c1.06-.5,2.1-1.06,3.11-1.66a33.46,33.46,0,0,0-47,0Zm35-2.46a28.63,28.63,0,0,0-11.5-2.4,28.28,28.28,0,0,0-3.45.21l-.29-2.38h0a31.15,31.15,0,0,1,3.74-.22,30.84,30.84,0,0,1,12.45,2.59Z"/></svg>