<svg xmlns="http://www.w3.org/2000/svg" viewBox="0 0 490 490"><defs><style>.a,.b{fill:#fff;}.a{stroke:#000;stroke-miterlimit:10;stroke-width:4px;}</style></defs><path d="M0,490H490V0H0ZM472.5,17.5v455H17.5V17.5Z"/><path d="M35,455H455V35H35ZM52.5,105V52.5H96.25V70H70v35Zm385,288.75V437.5H376.25V420H420V393.75Zm0-35v17.5H420v-17.5Zm-53.21,2.71-.83-2.82A26.88,26.88,0,0,1,384.29,361.46Z"/><polygon class="a" points="416.8 242.65 363.23 205.07 363.23 230.08 341.34 232.39 341.34 252.9 363.23 255.22 363.23 280.22 416.8 242.65"/><polygon class="a" points="151.23 234.6 75.03 242.65 151.23 250.7 151.23 234.6"/><path class="b" d="M165.06,304.74c1.56,2.09,3.23,4.1,4.95,6.07,20.08-12.53,46.53-19.46,75-19.46s54.91,6.93,75,19.46c1.73-2,3.39-4,5-6.07-20.4-13.07-49.28-20.52-79.94-20.52s-59.54,7.45-79.94,20.52Z"/><path class="b" d="M323.44,212.91V194.48c-1.22.69-2.49,1.34-3.75,2l-3.43,20.59-7-1.17,2.62-15.76c-2.24,1-4.54,1.88-6.89,2.74l-3,17.76-7-1.17,2.34-14c-2,.62-4.08,1.19-6.16,1.73l-3.44,17.17-7-1.4L283.51,209c-2.13.45-4.32.87-6.52,1.25l-3.54,17.67-7-1.4,3-15.13c-2.36.31-4.75.56-7.13.77l-3.17,15.76-7-1.4L255,212.65c-2.34.12-4.69.19-7,.23l-3,15-7-1.4,2.72-13.64q-3.48-.07-6.93-.27l-3.07,15.31-7-1.4L226.56,212c-2.31-.22-4.61-.49-6.88-.79l-3.31,13.23-6.92-1.72,3.15-12.61q-3.76-.66-7.44-1.47l-3.06,12.24-6.92-1.73,3-12.18c-2.67-.71-5.28-1.48-7.85-2.3l-2.49,12.48-7-1.4,2.69-13.46c-2.43-.91-4.81-1.87-7.13-2.9l-2.85,14.2-7-1.4,3.21-16q-4.62-2.39-8.82-5.08h0a99.47,99.47,0,0,0,0,107.74q4.2-2.7,8.82-5.09l-3.21-16,7-1.39,2.85,14.19c2.31-1,4.7-2,7.13-2.9l-2.7-13.46,7-1.4,2.49,12.48q3.85-1.24,7.85-2.3l-3.05-12.18,6.92-1.73,3.06,12.24q3.67-.81,7.44-1.47l-3.15-12.61,6.91-1.72,3.33,13.21q3.42-.45,6.89-.79l-2.89-14.44,7-1.4,3.07,15.3q3.45-.19,6.93-.27l-2.73-13.62,7-1.4,3,15q3.54,0,7,.23l-2.77-13.84,7-1.4,3.15,15.75c2.4.22,4.79.47,7.13.77l-3-15.12,7-1.4L277,279.81c2.2.37,4.37.8,6.52,1.25l-2.78-13.95,7-1.4,3.44,17.15c2.08.54,4.13,1.11,6.15,1.73l-2.33-14,7-1.17,3,17.76c2.35.85,4.63,1.78,6.89,2.73l-2.62-15.76,7-1.17,3.43,20.59c1.27.65,2.53,1.3,3.75,2V277.09h7.13v19.25a99.56,99.56,0,0,0,0-102.72v19.29ZM166.55,248.57v-7.13h7.14v7.13Zm0,17.82h-7.13v-7.13h7.13ZM337.7,245A92.66,92.66,0,0,1,335,267.25l-6.93-1.71h0a86.54,86.54,0,0,0-.92-44.5l6.85-2A92.62,92.62,0,0,1,337.7,245Z"/><path class="b" d="M288.57,321.22l10.34-12.94q-4.37-1.72-9-3.14l-10,13.31-5.7-4.28,8.33-11.1q-6.65-1.65-13.63-2.71l-2.62,13.1-7-1.4,2.52-12.6q-6.17-.65-12.48-.82L252.06,312l-7,1.43-3-14.87c-2.33,0-4.64.09-6.95.23L237.8,312l-7,1.43-2.8-14q-5,.52-9.93,1.38l5.17,10.29-6.38,3.19-6-12.06c-3.17.71-6.27,1.52-9.31,2.41l7.13,9.48-5.7,4.28L194.37,307c-2.61.94-5.17,1.93-7.64,3l10.91,10.91L192.56,326l-12.65-12.66c-1.69.89-3.29,1.85-4.89,2.81h0a99.62,99.62,0,0,0,140,0,101.48,101.48,0,0,0-9.27-4.93l-11.57,14.48Z"/><path class="b" d="M170,179.19c-1.72,2-3.38,4-4.95,6.07,20.39,13.07,49.27,20.52,79.94,20.52s59.54-7.45,79.94-20.52c-1.57-2.09-3.23-4.1-5-6.07-20.07,12.53-46.52,19.46-75,19.46s-54.91-6.94-75-19.46Z"/><path class="b" d="M175,173.88c1.6,1,3.21,1.92,4.89,2.81L192.56,164l5,5L186.69,180c2.47,1.07,5,2.06,7.65,3l8.58-11.45,5.71,4.28-7.13,9.48c3,.9,6.13,1.71,9.3,2.41l6-12.06,6.38,3.19-5.15,10.3c3.26.57,6.58,1,9.93,1.39l2.8-14,7,1.42-2.64,13.24c2.3.14,4.63.18,6.95.23l3-14.87,7,1.4-2.68,13.42q6.3-.18,12.48-.82L259.33,178l7-1.4,2.62,13.09c4.63-.71,9.2-1.61,13.62-2.72l-8.33-11.11,5.71-4.28,10,13.31q4.63-1.43,9-3.14l-10.34-12.93,5.57-4.46,11.58,14.48a101.48,101.48,0,0,0,9.27-4.93,99.62,99.62,0,0,0-140,0Zm104.21-7.32A84.9,84.9,0,0,0,245,159.43a88.21,88.21,0,0,0-10.28.6l-.84-7.08h0a93.88,93.88,0,0,1,11.12-.66A92.06,92.06,0,0,1,282.08,160Z"/></svg>