<svg xmlns="http://www.w3.org/2000/svg" viewBox="0 0 490 490"><defs><style>.a{fill:#fff;}</style></defs><path d="M253.75,218.75A8.75,8.75,0,1,1,245,210a8.75,8.75,0,0,1,8.75,8.75"/><path d="M0,0V490H490V0ZM472.5,472.5H17.5V17.5h455Z"/><path d="M35,35V455H455V35ZM385,52.5h52.5V96.25H420V70H385ZM96.25,437.5H52.5V376.25H70V420H96.25Zm35,0h-17.5V420h17.5Zm-2.71-53.21,2.82-.83A26.88,26.88,0,0,1,128.54,384.29Z"/><path class="a" d="M245.35,397,75.31,199.9l3.16-8.35a174.17,174.17,0,0,1,325.85,0l3.07,8.12ZM109.88,194,244.79,350.42,373,194.27q-2.25-5-4.84-9.8a144.19,144.19,0,0,0-253.56,0C112.93,187.58,111.35,190.78,109.88,194Z"/><path d="M390.29,196.86a159.16,159.16,0,0,0-297.79,0L245.07,373.71Z"/><polygon class="a" points="253.92 205.3 278.93 205.3 241.35 151.72 203.78 205.3 228.78 205.3 241.35 324.25 253.92 205.3"/></svg>