<svg xmlns="http://www.w3.org/2000/svg" viewBox="0 0 490 490"><defs><style>.a{fill:#fff;}</style></defs><path d="M0,490H490V0H0ZM472.5,17.5v455H17.5V17.5Z"/><path d="M35,455H455V35H35ZM52.5,105V52.5H96.25V70H70v35Zm385,288.75V437.5H376.25V420H420V393.75Zm0-35v17.5H420v-17.5Zm-53.21,2.71-.83-2.82A26.88,26.88,0,0,1,384.29,361.46Z"/><path class="a" d="M241,404,411,206.91l-3.15-8.34a176.15,176.15,0,0,0-9.78-21.39A174.17,174.17,0,0,0,82,198.57L79,206.68Zm135.47-203L241.56,357.44,113.34,201.28c1.5-3.34,3.11-6.62,4.84-9.8a144.19,144.19,0,0,1,253.56,0Q374.26,196.15,376.47,201.06Z"/><path d="M96.06,203.87a159.16,159.16,0,0,1,297.79,0L241.28,380.73Z"/><polygon class="a" points="277.69 191.27 277.69 166.26 331.26 203.83 277.69 241.41 277.69 216.4 158.74 203.83 277.69 191.27"/></svg>