<svg xmlns="http://www.w3.org/2000/svg" viewBox="0 0 490 490"><defs><style>.a{fill:#fff;}</style></defs><path d="M0,490H490V0H0ZM472.5,17.5v455H17.5V17.5Z"/><path d="M35,455H455V35H35ZM52.5,105V52.5H96.25V70H70v35Zm385,288.75V437.5H376.25V420H420V393.75Zm0-35v17.5H420v-17.5Zm-53.21,2.71-.83-2.82A26.88,26.88,0,0,1,384.29,361.46Z"/><path class="a" d="M136.74,187.82a56.73,56.73,0,0,0-38.51,15,44.89,44.89,0,0,0,9.64,7.95l6.35-11.43,7.69,4.27-6.13,11h0a54.3,54.3,0,0,0,9.42,2.82l.93-10.17,8.77.79-1,10.4c.93,0,1.85.14,2.78.14h0a59,59,0,0,0,8.4-.67l-3.33-12.22,8.49-2.31L153.73,216h0a52.69,52.69,0,0,0,8.89-3.68l-4.87-8.77,7.69-4.27,4.61,8.34a43.38,43.38,0,0,0,5.13-4.83,56.75,56.75,0,0,0-38.44-15Zm44.56,21.37c-.35.36-.63.77-1,1.13a52.82,52.82,0,0,1-5.94,5l6.65,12-7.7,4.28-6.39-11.51a60.7,60.7,0,0,1-10.86,4.44l3.58,13.12L151.17,240l-3.69-13.45a67,67,0,0,1-10.76.92c-1.21,0-2.37-.12-3.56-.17l-1.38,15.06-8.76-.79,1.4-15.31a63.57,63.57,0,0,1-12.94-3.86l-5.12,9.23-7.69-4.27,4.92-8.87h0a54.48,54.48,0,0,1-11.44-9.24,57.11,57.11,0,0,0,0,71.59,54.74,54.74,0,0,1,11.44-9.24l-4.93-8.86,7.7-4.27,5.13,9.22a63.1,63.1,0,0,1,10.89-3.5L120,252.08l8.63-1.72,2.51,12.53c1.86-.15,3.72-.29,5.62-.29h0a68,68,0,0,1,8.56.58l2.64-15.81,8.68,1.45-2.68,16.09h0a62.27,62.27,0,0,1,10.83,3.92l5.21-13,8.16,3.27-5.68,14.23a53.19,53.19,0,0,1,8.86,7.48,57.11,57.11,0,0,0,0-71.58Zm-44.56,93a56.72,56.72,0,0,0,38.5-15,43.38,43.38,0,0,0-6.13-5.52l-3.4,8.52-8.17-3.27,4-9.87h0a52.56,52.56,0,0,0-9-3.41l-2.09,12.54-8.68-1.45,2.14-12.85a58.47,58.47,0,0,0-7.13-.47c-1.31,0-2.6.11-3.88.2l2,9.86-8.63,1.72-2.08-10.41h0a54,54,0,0,0-8.33,2.6l6.13,11-7.69,4.28-6.36-11.44a45.37,45.37,0,0,0-9.63,7.95,56.71,56.71,0,0,0,38.52,15Z"/><path class="a" d="M410.45,240.6H217.61v8.8H410.45Z"/><path class="a" d="M338.91,218.83H208.28v8.8H338.91Z"/><path class="a" d="M370,262.37H208.28v8.8H370Z"/><path class="a" d="M363.8,218.83H351.36v8.8H363.8Z"/><path class="a" d="M392.94,262.8H380.5v8.8h12.44Z"/></svg>