<svg xmlns="http://www.w3.org/2000/svg" viewBox="0 0 490 490"><defs><style>.a{fill:#fff;}</style></defs><path d="M0,0V490H490V0ZM472.5,472.5H17.5V17.5h455Z"/><path d="M35,35V455H455V35ZM385,52.5h52.5V96.25H420V70H385ZM96.25,437.5H52.5V376.25H70V420H96.25Zm35,0h-17.5V420h17.5Zm-2.71-53.21,2.82-.83A26.88,26.88,0,0,1,128.54,384.29Z"/><path class="a" d="M249,404,79,206.91l3.15-8.34a176.15,176.15,0,0,1,9.78-21.39A174.17,174.17,0,0,1,408,198.57l3.07,8.11Zm-135.47-203L248.44,357.44,376.66,201.28c-1.5-3.34-3.11-6.62-4.84-9.8a144.19,144.19,0,0,0-253.56,0Q115.74,196.15,113.53,201.06Z"/><path d="M393.94,203.87a159.16,159.16,0,0,0-297.79,0L248.72,380.73Z"/><polygon class="a" points="212.31 191.27 212.31 166.26 158.74 203.83 212.31 241.41 212.31 216.4 331.26 203.83 212.31 191.27"/></svg>