<svg xmlns="http://www.w3.org/2000/svg" viewBox="0 0 490 490"><defs><style>.a{fill:#fff;}</style></defs><path d="M0,0V490H490V0ZM472.5,472.5H17.5V17.5h455Z"/><path d="M35,35V455H455V35ZM385,52.5h52.5V96.25H420V70H385ZM96.25,437.5H52.5V376.25H70V420H96.25Zm35,0h-17.5V420h17.5Zm-2.71-53.21,2.82-.83A26.88,26.88,0,0,1,128.54,384.29Z"/><path class="a" d="M183.86,174.47c-2.09,1.56-4.1,3.23-6.06,4.95,12.52,20.08,19.45,46.53,19.45,75s-6.93,54.91-19.45,75c2,1.73,4,3.39,6.06,5,13.07-20.4,20.52-49.28,20.52-79.94s-7.45-59.54-20.52-79.94Z"/><path class="a" d="M275.69,332.85h18.43c-.69-1.22-1.34-2.49-2-3.75l-20.59-3.43,1.17-7,15.76,2.62c-1-2.24-1.88-4.54-2.73-6.89l-17.76-3,1.17-7,14,2.34c-.62-2-1.19-4.08-1.73-6.16l-17.17-3.44,1.4-7,13.95,2.78c-.45-2.13-.87-4.32-1.25-6.52l-17.66-3.54,1.39-7,15.13,3c-.3-2.36-.55-4.75-.77-7.13l-15.75-3.17,1.39-7L276,264.38q-.18-3.51-.24-7l-15-3,1.39-7,13.64,2.72q.08-3.48.27-6.93l-15.3-3.07,1.39-7L276.56,236c.22-2.31.49-4.61.79-6.88l-13.23-3.31,1.72-6.92L278.46,222q.65-3.76,1.46-7.44l-12.24-3.06,1.73-6.92,12.18,3c.71-2.67,1.48-5.28,2.3-7.85l-12.48-2.49,1.4-7L286.27,193c.91-2.43,1.87-4.81,2.9-7.13L275,183l1.39-7,16,3.21q2.38-4.62,5.09-8.82h0a99.49,99.49,0,0,0-107.75,0q2.7,4.2,5.09,8.82l16-3.21,1.39,7L198,185.87c1,2.31,2,4.7,2.9,7.13l13.47-2.7,1.39,7-12.48,2.49q1.25,3.85,2.3,7.85l12.18-3,1.73,6.92-12.24,3.06q.81,3.67,1.47,7.44l12.61-3.15,1.73,6.91-13.22,3.33q.45,3.42.79,6.89l14.45-2.89,1.39,7-15.3,3.07q.2,3.45.27,6.93l13.62-2.73,1.4,7-15,3q0,3.54-.23,7l13.84-2.77,1.4,7-15.75,3.15c-.22,2.4-.47,4.79-.77,7.13l15.12-3,1.4,7-17.66,3.53c-.38,2.21-.8,4.38-1.26,6.53l14-2.78,1.39,7-17.15,3.44c-.54,2.08-1.11,4.13-1.73,6.15l14-2.33,1.17,7-17.76,3c-.86,2.35-1.79,4.63-2.74,6.89l15.76-2.62,1.17,7-20.59,3.43c-.65,1.27-1.3,2.53-2,3.75h18.44V340H192.26A99.62,99.62,0,0,0,295,340H275.69ZM240,176h7.13v7.14H240Zm-17.83,0v-7.13h7.13V176ZM243.6,347.11a92.64,92.64,0,0,1-22.24-2.68l1.7-6.93h0a86.58,86.58,0,0,0,44.51-.92l2,6.85a92.74,92.74,0,0,1-26,3.68Z"/><path class="a" d="M167.39,298l12.93,10.34q1.73-4.36,3.14-9l-13.31-10,4.28-5.7,11.1,8.33q1.66-6.64,2.72-13.63l-13.11-2.62,1.4-7,12.6,2.52q.66-6.17.82-12.48l-13.39,2.69-1.43-7,14.87-3c0-2.33-.08-4.64-.22-6.95l-13.22,2.65-1.43-7,14-2.8q-.54-5-1.39-9.93l-10.29,5.17-3.19-6.38,12.06-6q-1.06-4.75-2.41-9.31l-9.48,7.13-4.28-5.7,11.45-8.59c-.94-2.61-1.93-5.17-3-7.65L167.68,207l-5-5.07,12.65-12.65c-.89-1.69-1.85-3.29-2.81-4.89h0a99.62,99.62,0,0,0,0,140,101.48,101.48,0,0,0,4.93-9.27l-14.48-11.57Z"/><path class="a" d="M309.41,179.42c-2-1.72-4-3.38-6.06-4.95-13.07,20.39-20.53,49.27-20.53,79.94s7.46,59.54,20.53,79.94c2.09-1.57,4.1-3.23,6.06-5-12.52-20.07-19.45-46.52-19.45-75s6.93-54.91,19.45-75Z"/><path class="a" d="M314.72,184.43c-1,1.6-1.91,3.21-2.8,4.89L324.57,202l-5,5L308.62,196.1c-1.07,2.47-2.07,5-3,7.65l11.44,8.58L312.78,218l-9.49-7.13q-1.35,4.54-2.41,9.3l12.06,6-3.18,6.38-10.31-5.15c-.57,3.26-1,6.58-1.39,9.93l14,2.8-1.41,7-13.25-2.64c-.14,2.3-.18,4.63-.23,6.94l14.87,3-1.39,7-13.42-2.68q.16,6.3.82,12.48l12.6-2.53,1.39,7-13.09,2.62c.72,4.63,1.61,9.2,2.72,13.62l11.12-8.33,4.27,5.71-13.31,10q1.42,4.64,3.14,9L319.82,298l4.45,5.57-14.48,11.58a101.48,101.48,0,0,0,4.93,9.27,99.62,99.62,0,0,0,0-140Zm7.33,104.21a85.06,85.06,0,0,0,7.13-34.23,88.21,88.21,0,0,0-.61-10.28l7.08-.84h0a93.88,93.88,0,0,1,.66,11.12,91.89,91.89,0,0,1-7.72,37.08Z"/><path class="a" d="M344.9,148.09l-9.16-64.8L318.05,99.84c-63.33-21.7-126.39-7.71-173,40.91,45.7-36.58,100.46-45.35,153.21-22.44l-17.45,16.32Z"/></svg>