<svg xmlns="http://www.w3.org/2000/svg" viewBox="0 0 490 490"><defs><style>.a,.b{fill:#fff;}.a{stroke:#000;stroke-miterlimit:10;stroke-width:4px;}</style></defs><path d="M0,0V490H490V0ZM472.5,472.5H17.5V17.5h455Z"/><path d="M35,35V455H455V35ZM385,52.5h52.5V96.25H420V70H385ZM96.25,437.5H52.5V376.25H70V420H96.25Zm35,0h-17.5V420h17.5Zm-2.71-53.21,2.82-.83A26.88,26.88,0,0,1,128.54,384.29Z"/><polygon class="a" points="247.35 416.8 284.93 363.23 259.92 363.23 257.61 341.34 237.1 341.34 234.78 363.23 209.78 363.23 247.35 416.8"/><polygon class="a" points="255.4 151.23 247.35 75.03 239.3 151.23 255.4 151.23"/><path class="b" d="M185.26,165.06c-2.09,1.56-4.1,3.23-6.07,4.95,12.53,20.08,19.46,46.53,19.46,75s-6.93,54.91-19.46,75c2,1.73,4,3.39,6.07,5,13.07-20.4,20.52-49.28,20.52-79.94s-7.45-59.54-20.52-79.94Z"/><path class="b" d="M277.09,323.44h18.43c-.69-1.22-1.34-2.49-2-3.75l-20.59-3.43,1.17-7,15.76,2.62c-1-2.24-1.88-4.54-2.74-6.89l-17.76-3,1.17-7,14,2.34c-.62-2-1.19-4.08-1.73-6.16l-17.17-3.44,1.4-7L281,283.51c-.45-2.13-.87-4.32-1.25-6.52l-17.67-3.54,1.4-7,15.13,3c-.31-2.36-.56-4.75-.77-7.13l-15.76-3.17,1.4-7L277.35,255c-.12-2.34-.19-4.69-.23-7l-15-3,1.4-7,13.64,2.72q.08-3.48.27-6.93l-15.31-3.07,1.4-7L278,226.56c.22-2.31.49-4.61.79-6.88l-13.23-3.31,1.72-6.92,12.61,3.15q.66-3.76,1.47-7.44l-12.24-3.06,1.73-6.92,12.18,3c.71-2.67,1.48-5.28,2.3-7.85l-12.48-2.49,1.4-7,13.46,2.69c.91-2.43,1.87-4.81,2.9-7.13l-14.2-2.85,1.4-7,16,3.21q2.39-4.62,5.08-8.82h0a99.47,99.47,0,0,0-107.74,0q2.7,4.2,5.09,8.82l16-3.21,1.39,7-14.19,2.85c1,2.31,2,4.7,2.9,7.13l13.46-2.7,1.4,7-12.48,2.49q1.24,3.85,2.3,7.85l12.18-3.05,1.73,6.92-12.24,3.06q.81,3.67,1.47,7.44l12.61-3.15,1.72,6.91-13.21,3.33q.45,3.42.79,6.89l14.44-2.89,1.4,7-15.3,3.07q.19,3.45.27,6.93l13.62-2.73,1.4,7-15,3q0,3.54-.23,7l13.84-2.77,1.4,7-15.75,3.15c-.22,2.4-.47,4.79-.77,7.13l15.12-3,1.4,7L210.19,277c-.37,2.2-.8,4.37-1.25,6.52l13.95-2.78,1.4,7-17.15,3.44c-.54,2.08-1.11,4.13-1.73,6.15l14-2.33,1.17,7-17.76,3c-.85,2.35-1.78,4.63-2.73,6.89l15.76-2.62,1.17,7-20.59,3.43c-.65,1.27-1.3,2.53-2,3.75h18.44v7.13H193.66a99.56,99.56,0,0,0,102.72,0H277.09ZM241.43,166.55h7.13v7.14h-7.13Zm-17.82,0v-7.13h7.13v7.13ZM245,337.7A92.66,92.66,0,0,1,222.75,335l1.71-6.93h0a86.54,86.54,0,0,0,44.5-.92l2,6.85A92.62,92.62,0,0,1,245,337.7Z"/><path class="b" d="M168.78,288.57l12.94,10.34q1.72-4.37,3.14-9l-13.31-10,4.28-5.7,11.1,8.33q1.65-6.65,2.71-13.63l-13.1-2.62,1.4-7,12.6,2.52q.65-6.17.82-12.48L178,252.06l-1.43-7,14.87-3c0-2.33-.09-4.64-.23-6.95L178,237.8l-1.43-7,14-2.8q-.53-5-1.38-9.93l-10.29,5.17-3.19-6.38,12.06-6c-.71-3.17-1.52-6.27-2.41-9.31l-9.48,7.13-4.28-5.7L183,194.37c-.94-2.61-1.93-5.17-3-7.64l-10.91,10.91L164,192.56l12.66-12.65c-.89-1.69-1.85-3.29-2.81-4.89h0a99.62,99.62,0,0,0,0,140,101.48,101.48,0,0,0,4.93-9.27l-14.48-11.57Z"/><path class="b" d="M310.81,170c-2-1.72-4-3.38-6.07-4.95-13.07,20.39-20.52,49.27-20.52,79.94s7.45,59.54,20.52,79.94c2.09-1.57,4.1-3.23,6.07-5-12.53-20.07-19.46-46.52-19.46-75s6.94-54.91,19.46-75Z"/><path class="b" d="M316.12,175c-1,1.6-1.92,3.21-2.81,4.89L326,192.56l-5,5L310,186.69c-1.07,2.47-2.06,5-3,7.65l11.45,8.58-4.28,5.71-9.48-7.13c-.9,3-1.71,6.13-2.41,9.3l12.06,6-3.19,6.38-10.3-5.15c-.57,3.26-1,6.58-1.39,9.93l14,2.8-1.42,7-13.24-2.64c-.14,2.3-.18,4.63-.23,6.95l14.87,3-1.4,7-13.42-2.68q.18,6.3.82,12.48l12.6-2.53,1.4,7-13.09,2.62c.71,4.63,1.61,9.2,2.72,13.62l11.11-8.33,4.28,5.71-13.31,10q1.42,4.63,3.14,9l12.93-10.34,4.46,5.57-14.48,11.58a101.48,101.48,0,0,0,4.93,9.27,99.62,99.62,0,0,0,0-140Zm7.32,104.21A84.9,84.9,0,0,0,330.57,245a88.21,88.21,0,0,0-.6-10.28l7.08-.84h0a93.88,93.88,0,0,1,.66,11.12A92.06,92.06,0,0,1,330,282.08Z"/></svg>