<svg xmlns="http://www.w3.org/2000/svg" viewBox="0 0 490 490"><defs><style>.a{fill:#fff;}</style></defs><path d="M0,0V490H490V0ZM472.5,472.5H17.5V17.5h455Z"/><path d="M35,35V455H455V35ZM385,52.5h52.5V96.25H420V70H385ZM96.25,437.5H52.5V376.25H70V420H96.25Zm35,0h-17.5V420h17.5Zm-2.71-53.21,2.82-.83A26.88,26.88,0,0,1,128.54,384.29Z"/><path class="a" d="M187.82,136.74a56.73,56.73,0,0,1,15-38.51,44.89,44.89,0,0,1,7.95,9.64l-11.43,6.35,4.27,7.69,11-6.13h0a54.3,54.3,0,0,1,2.82,9.42l-10.17.93.79,8.77,10.4-1c0,.93.14,1.85.14,2.78h0a59,59,0,0,1-.67,8.4l-12.22-3.33-2.31,8.49L216,153.73h0a52.69,52.69,0,0,1-3.68,8.89l-8.77-4.87-4.27,7.69,8.34,4.61a43.38,43.38,0,0,1-4.83,5.13,56.75,56.75,0,0,1-15-38.44Zm21.37,44.56c.36-.35.77-.63,1.13-1a52.82,52.82,0,0,0,5-5.94l12,6.65,4.28-7.7-11.51-6.39a60.7,60.7,0,0,0,4.44-10.86l13.12,3.58,2.31-8.48-13.45-3.69a67,67,0,0,0,.92-10.76c0-1.21-.12-2.37-.17-3.56l15.06-1.38-.79-8.76-15.31,1.4a63.57,63.57,0,0,0-3.86-12.94l9.23-5.12-4.27-7.69-8.87,4.92h0a54.48,54.48,0,0,0-9.24-11.44,57.11,57.11,0,0,1,71.59,0,54.74,54.74,0,0,0-9.24,11.44l-8.86-4.93-4.27,7.7,9.22,5.13a63.1,63.1,0,0,0-3.5,10.89L252.08,120l-1.72,8.63,12.53,2.51c-.15,1.86-.29,3.72-.29,5.62h0a68,68,0,0,0,.58,8.56l-15.81,2.64,1.45,8.68,16.09-2.68h0a62.27,62.27,0,0,0,3.92,10.83l-13,5.21,3.27,8.16,14.23-5.68a53.19,53.19,0,0,0,7.48,8.86,57.11,57.11,0,0,1-71.58,0Zm93-44.56a56.72,56.72,0,0,1-15,38.5,43.38,43.38,0,0,1-5.52-6.13l8.52-3.4-3.27-8.17-9.87,4h0a52.56,52.56,0,0,1-3.41-9l12.54-2.09-1.45-8.68-12.85,2.14a58.47,58.47,0,0,1-.47-7.13c0-1.31.11-2.6.2-3.88l9.86,2,1.72-8.63-10.41-2.08h0a54,54,0,0,1,2.6-8.33l11,6.13,4.28-7.69-11.44-6.36a45.37,45.37,0,0,1,7.95-9.63,56.71,56.71,0,0,1,15,38.52Z"/><path class="a" d="M240.6,410.45V217.61h8.8V410.45Z"/><path class="a" d="M218.83,338.91V208.28h8.8V338.91Z"/><path class="a" d="M262.37,370V208.28h8.8V370Z"/><path class="a" d="M218.83,363.8V351.36h8.8V363.8Z"/><path class="a" d="M262.8,392.94V380.5h8.8v12.44Z"/></svg>