<svg xmlns="http://www.w3.org/2000/svg" viewBox="0 0 490 490"><defs><style>.a{fill:#fff;}</style></defs><path d="M0,490H490V0H0ZM472.5,17.5v455H17.5V17.5Z"/><path d="M35,455H455V35H35ZM52.5,105V52.5H96.25V70H70v35Zm385,288.75V437.5H376.25V420H420V393.75Zm0-35v17.5H420v-17.5Zm-53.21,2.71-.83-2.82A26.88,26.88,0,0,1,384.29,361.46Z"/><path class="a" d="M142,254a56.74,56.74,0,0,0-38.51,15,44.89,44.89,0,0,0,9.64,7.95l6.35-11.43,7.69,4.27-6.13,11h0a54.3,54.3,0,0,0,9.42,2.82l.93-10.17,8.77.79-.95,10.4c.93,0,1.85.14,2.79.14h0a59,59,0,0,0,8.4-.67L147,271.85l8.49-2.31L159,282.17h0a52.69,52.69,0,0,0,8.89-3.68L163,269.72l7.69-4.27,4.61,8.34a43.38,43.38,0,0,0,5.13-4.83A56.73,56.73,0,0,0,142,254Zm44.56,21.37c-.35.36-.63.77-1,1.13a52.82,52.82,0,0,1-5.94,5l6.65,12-7.7,4.28-6.39-11.51a60.7,60.7,0,0,1-10.86,4.44l3.58,13.11-8.48,2.32-3.69-13.45a66.89,66.89,0,0,1-10.76.92c-1.21,0-2.37-.12-3.56-.17L137,308.44l-8.77-.79,1.4-15.31a64.4,64.4,0,0,1-12.94-3.86l-5.12,9.23-7.69-4.27,4.92-8.87h0a54.48,54.48,0,0,1-11.44-9.24,57.11,57.11,0,0,0,0,71.59,54.74,54.74,0,0,1,11.44-9.24l-4.92-8.86,7.69-4.28,5.13,9.23a63.1,63.1,0,0,1,10.89-3.5l-2.41-12.06,8.63-1.72L136.35,329c1.86-.15,3.72-.29,5.62-.29h0a67.87,67.87,0,0,1,8.56.58l2.64-15.81,8.68,1.45L159.17,331h0A63,63,0,0,1,170,335l5.21-13,8.16,3.27-5.68,14.23a52.79,52.79,0,0,1,8.86,7.48,57.11,57.11,0,0,0,0-71.58Zm-44.56,93a56.72,56.72,0,0,0,38.5-15,43.31,43.31,0,0,0-6.12-5.52l-3.41,8.52-8.17-3.27,3.95-9.87h0a52.56,52.56,0,0,0-9-3.41l-2.09,12.54L147,350.86,149.1,338a58.77,58.77,0,0,0-7.14-.47c-1.31,0-2.6.11-3.88.2l2,9.86-8.63,1.72-2.08-10.41h0a54.29,54.29,0,0,0-8.33,2.6l6.13,11-7.69,4.28-6.36-11.44a45.37,45.37,0,0,0-9.63,7.95,56.71,56.71,0,0,0,38.52,15Z"/><path class="a" d="M429.41,243.45c-64.64-74.16-170.44-79.07-241.3-10.59l6.36,6.08c67.4-64.67,166.54-60.08,228.08,10Z"/><path class="a" d="M350.1,167.36c-72.13-16-140,6.56-188.23,62.48l6.86,5.5c46.16-53.25,110.3-74.61,179.16-59.46C348.77,172.47,349.22,170.77,350.1,167.36Z"/><path class="a" d="M373.9,223.78c-62.72-32.65-131.32-19.64-178.06,33.28l6.87,5.5c43.95-49.49,108-61.59,166.77-31.17Z"/><path class="a" d="M387,181.33a152.07,152.07,0,0,0-18.14-8l-3.12,8.23A144.47,144.47,0,0,1,383,189.17Z"/><path class="a" d="M396.64,240.93a113.88,113.88,0,0,0-12.12-9.77l-5.11,7.17a107.34,107.34,0,0,1,11.35,9.14Z"/></svg>